HIERARCHY
ROOT RootJoint
{
    OFFSET   0.000000   0.000000   0.000000
    CHANNELS 6 Xposition Yposition Zposition Xrotation Yrotation Zrotation
    JOINT pelvis_lowerback
    {
        OFFSET   0.000000   0.093605   0.000000
        CHANNELS 3 Xrotation Yrotation Zrotation
        JOINT lowerback_torso
        {
            OFFSET   0.000000   0.100000   0.000000
            CHANNELS 3 Xrotation Yrotation Zrotation
            JOINT torso_head
            {
                OFFSET   0.000000   0.282350   0.000000
                CHANNELS 3 Xrotation Yrotation Zrotation
                End Site
                {
                    OFFSET   0.000000   0.192650   0.000000
                }
            }
            JOINT rTorso_Clavicle
            {
                OFFSET  -0.001000   0.157500   0.000000
                CHANNELS 3 Xrotation Yrotation Zrotation
                JOINT rShoulder
                {
                    OFFSET  -0.117647   0.000000   0.000000
                    CHANNELS 3 Xrotation Yrotation Zrotation
                    JOINT rElbow
                    {
                        OFFSET  -0.245000   0.000000   0.000000
                        CHANNELS 3 Xrotation Yrotation Zrotation
                        JOINT rWrist
                        {
                            OFFSET  -0.240000   0.000000   0.000000
                            CHANNELS 3 Xrotation Yrotation Zrotation
                            End Site
                            {
                                OFFSET  -0.116353  -0.002500   0.000000
                            }
                        }
                    }
                }
            }
            JOINT lTorso_Clavicle
            {
                OFFSET   0.001000   0.157500   0.000000
                CHANNELS 3 Xrotation Yrotation Zrotation
                JOINT lShoulder
                {
                    OFFSET   0.117647   0.000000   0.000000
                    CHANNELS 3 Xrotation Yrotation Zrotation
                    JOINT lElbow
                    {
                        OFFSET   0.245000   0.000000   0.000000
                        CHANNELS 3 Xrotation Yrotation Zrotation
                        JOINT lWrist
                        {
                            OFFSET   0.240000   0.000000   0.000000
                            CHANNELS 3 Xrotation Yrotation Zrotation
                            End Site
                            {
                                OFFSET   0.116353  -0.002500   0.000000
                            }
                        }
                    }
                }
            }
        }
    }
    JOINT rHip
    {
        OFFSET  -0.100000  -0.051395   0.000000
        CHANNELS 3 Xrotation Yrotation Zrotation
        JOINT rKnee
        {
            OFFSET   0.000000  -0.410000   0.000000
            CHANNELS 3 Xrotation Yrotation Zrotation
            JOINT rAnkle
            {
                OFFSET   0.000000  -0.390000   0.000000
                CHANNELS 3 Xrotation Yrotation Zrotation
                JOINT rToeJoint
                {
                    OFFSET   0.000000  -0.050000   0.130000
                    CHANNELS 3 Xrotation Yrotation Zrotation
                    End Site
                    {
                        OFFSET  -0.010000   0.002000   0.060000
                    }
                }
            }
        }
    }
    JOINT lHip
    {
        OFFSET   0.100000  -0.051395   0.000000
        CHANNELS 3 Xrotation Yrotation Zrotation
        JOINT lKnee
        {
            OFFSET   0.000000  -0.410000   0.000000
            CHANNELS 3 Xrotation Yrotation Zrotation
            JOINT lAnkle
            {
                OFFSET   0.000000  -0.390000   0.000000
                CHANNELS 3 Xrotation Yrotation Zrotation
                JOINT lToeJoint
                {
                    OFFSET   0.000000  -0.050000   0.130000
                    CHANNELS 3 Xrotation Yrotation Zrotation
                    End Site
                    {
                        OFFSET   0.010000   0.002000   0.060000
                    }
                }
            }
        }
    }
}
MOTION
Frames: 10
Frame Time:   0.008333
 -2.239614   0.915597   3.959584  -8.318540  46.783949   7.144161  12.568517   1.611944  -3.596404   4.996751   0.142479  -1.463351  -1.232944   0.029196   1.299820   2.023244   4.560911   8.875353   2.544540   9.928491  49.396730   0.002737  23.442313  -0.013517   4.981500   3.479484  -4.634106   1.821077  -4.528279  -9.175964   4.454346  -8.545886 -46.938899   0.000389 -17.515215   0.004474   2.757105  -3.360611   5.164818  -4.308681 -15.370666 -14.959018  38.450966  -0.000455   0.002794  -1.469190 -22.059916   1.386816  -4.643871  -0.005125   0.009168  -0.001853   2.990752  -0.318323  13.024844  -0.000184  -0.000403  -7.821023   7.075331   5.621060   0.567549  -0.000011   0.000000
 -2.238530   0.915795   3.960084  -8.463055  46.936613   7.197543  12.591195   1.547698  -3.606689   5.005301   0.153540  -1.421683  -1.199839   0.016877   1.328591   2.007234   4.766683   8.824623   2.490453  10.420874  49.294127   0.002327  24.133335  -0.014559   5.141094   3.442324  -4.703957   1.738749  -4.696056  -9.124055   4.406405  -8.918877 -46.755834  -0.000307 -18.054520   0.004754   2.879915  -3.312937   5.219966  -4.562416 -15.172800 -14.724763  38.414143  -0.000346   0.002111  -1.571860 -21.740570   1.442023  -4.306395  -0.005154   0.009395   0.204038   2.937306  -0.270057  12.898845  -0.000171  -0.000442  -7.803963   6.965584   5.514221   0.541390  -0.000034   0.000001
 -2.237523   0.915789   3.960672  -8.624718  47.106207   7.242689  12.619381   1.478070  -3.601596   5.006884   0.158489  -1.375144  -1.158172   0.004604   1.353685   1.968314   4.975272   8.749129   2.420790  10.896631  49.183561   0.001672  24.794653  -0.015037   5.304671   3.490911  -4.792288   1.632081  -4.873864  -9.043144   4.338835  -9.286846 -46.563577  -0.001086 -18.576197   0.004807   3.008069  -3.358330   5.314236  -4.792189 -14.990085 -14.473177  38.327111  -0.000243   0.001393  -1.671023 -21.439475   1.494202  -4.000462  -0.005064   0.009355   0.354699   2.934712  -0.178424  12.832377  -0.000147  -0.000458  -7.423261   6.917070   5.444569   0.783091   0.000016   0.000202
 -2.236605   0.915937   3.961259  -8.762719  47.257067   7.325622  12.651263   1.414665  -3.646386   4.995822   0.162112  -1.351572  -1.119626  -0.006802   1.375176   1.911309   5.189517   8.687549   2.339645  11.352928  49.075422   0.001113  25.417488  -0.015089   5.465226   3.573127  -4.910085   1.508708  -5.060553  -8.959248   4.259838  -9.642624 -46.362835  -0.001703 -19.069137   0.004714   3.135223  -3.442272   5.455203  -5.060969 -14.796997 -14.286155  38.214891  -0.000146   0.000748  -1.763997 -21.158403   1.543166  -3.715894  -0.004928   0.009110   0.540983   2.881759  -0.152555  12.741470  -0.000127  -0.000453  -7.499187   6.808443   5.337863   0.707710  -0.000061   0.000158
 -2.235770   0.916112   3.961890  -8.885955  47.416454   7.393959  12.676509   1.350541  -3.680594   4.974201   0.160997  -1.331328  -1.082236  -0.017491   1.393246   1.848020   5.397971   8.619522   2.256254  11.785478  48.969784   0.000604  26.003530  -0.014802   5.621616   3.677456  -5.036405   1.380136  -5.247782  -8.873319   4.176162  -9.984573 -46.171702  -0.002175 -19.535209   0.004501   3.260510  -3.554105   5.609416  -5.336530 -14.615433 -14.097586  38.096389  -0.000067   0.000216  -1.851634 -20.895895   1.589174  -3.457026  -0.004714   0.008723   0.726469   2.821311  -0.117584  12.617054  -0.000108  -0.000481  -7.540602   6.699698   5.244138   0.646799  -0.000097   0.000125
 -2.234937   0.916321   3.962591  -8.993488  47.579261   7.432189  12.684701   1.289492  -3.692738   4.943907   0.157604  -1.306771  -1.047052  -0.027345   1.410509   1.785367   5.594576   8.548750   2.176556  12.190606  48.864836   0.000158  26.551700  -0.014209   5.773002   3.787186  -5.169513   1.254914  -5.428076  -8.795209   4.094130 -10.308604 -45.994277  -0.002494 -19.973040   0.004192   3.382780  -3.679082   5.764932  -5.575222 -14.464189 -13.928075  38.077659  -0.000050   0.000119  -1.961267 -20.696894   1.610846  -3.509725  -0.003655   0.006737   0.906130   2.757033  -0.059780  12.481680  -0.000089  -0.000513  -7.567963   6.592781   5.160243   0.597325  -0.000111   0.000099
 -2.234142   0.916535   3.963350  -9.075500  47.734047   7.444729  12.679398   1.234384  -3.702007   4.902611   0.154966  -1.280551  -1.015928  -0.036450   1.427745   1.724032   5.780561   8.478641   2.100223  12.570750  48.765081  -0.000216  27.064780  -0.013426   5.919001   3.899266  -5.304419   1.135030  -5.599272  -8.718754   4.015796 -10.613560 -45.827125  -0.002689 -20.383400   0.003841   3.501219  -3.809268   5.918943  -5.787097 -14.319989 -13.767258  38.045978  -0.000039   0.000010  -2.050801 -20.491680   1.640430  -3.430469  -0.003067   0.005750   1.068959   2.696049   0.009268  12.346619  -0.000067  -0.000531  -7.587753   6.492761   5.083265   0.557082  -0.000111   0.000078
 -2.233558   0.916782   3.964027  -9.056319  47.887328   7.360561  12.646821   1.187868  -3.693977   4.861498   0.177406  -1.255902  -0.992890  -0.056739   1.446493   1.687917   5.951027   8.433580   1.998588  12.967588  48.586591  -0.000750  27.748421  -0.013717   6.048571   3.850600  -5.442142   1.054651  -5.738184  -8.642031   3.839198 -10.940923 -45.569998  -0.003902 -21.060951   0.003536   3.594270  -3.737313   5.997259  -5.954318 -14.149341 -13.582935  37.760933  -0.000142  -0.000802  -2.116225 -20.274958   1.627605  -3.547939  -0.002267   0.004035   1.140877   2.648577   0.110693  12.218400  -0.000040  -0.000543  -7.578000   6.389606   4.967760   0.515349  -0.000123   0.000062
 -2.233107   0.917025   3.964645  -8.991356  48.023768   7.244179  12.620200   1.149786  -3.691913   4.803803   0.203411  -1.230628  -0.965372  -0.074969   1.462716   1.625489   6.132274   8.380112   1.880928  13.356391  48.410937  -0.001215  28.401808  -0.013737   6.180745   3.874250  -5.607509   0.944820  -5.890086  -8.542775   3.648240 -11.268185 -45.306472  -0.005037 -21.713484   0.003264   3.692660  -3.771185   6.127201  -6.123621 -13.974867 -13.425687  37.414878  -0.000301  -0.001540  -2.172176 -20.058615   1.621350  -3.572852  -0.001772   0.003116   1.176039   2.609787   0.211118  12.087724  -0.000014  -0.000543  -7.552606   6.298393   4.860098   0.480024  -0.000123   0.000049
 -2.232743   0.917255   3.965250  -8.905687  48.146459   7.115788  12.599458   1.114711  -3.694336   4.737847   0.228458  -1.204999  -0.937034  -0.091681   1.476944   1.547975   6.318232   8.323622   1.756424  13.731456  48.241840  -0.001567  29.019038  -0.013476   6.312028   3.938785  -5.788649   0.821136  -6.049210  -8.431422   3.455698 -11.586222 -45.044706  -0.005927 -22.330388   0.003046   3.792614  -3.853987   6.294816  -6.296169 -13.802294 -13.292792  37.047076  -0.000465  -0.002106  -2.217381 -19.845119   1.620883  -3.509813  -0.001506   0.002768   1.193733   2.576528   0.309294  11.959456   0.000010  -0.000529  -7.520423   6.216831   4.759869   0.450246  -0.000117   0.000039
